<svg width="34" height="34" viewBox="0 0 34 34" fill="none" xmlns="http://www.w3.org/2000/svg">
<g clip-path="url(#clip0_211_2046)">
<path fill-rule="evenodd" clip-rule="evenodd" d="M9.97876 3.14941C13.823 3.14941 16.9395 6.26582 16.9395 10.1101V3.14941H23.9002C27.7444 3.14941 30.8608 6.26582 30.8608 10.1101C30.8608 13.9544 27.7444 17.0708 23.9002 17.0708C27.7444 17.0708 30.8608 20.1872 30.8608 24.0315C30.8608 25.9403 30.0925 27.6697 28.8482 28.9272L28.8221 28.9535L28.799 28.9764C27.5412 30.2225 25.8106 30.9922 23.9002 30.9922C22.0027 30.9922 20.2826 30.233 19.027 29.0018C19.0107 28.9858 18.9944 28.9696 18.9782 28.9535C18.9629 28.9382 18.9478 28.9229 18.9327 28.9075C17.6998 27.6517 16.9395 25.9304 16.9395 24.0315C16.9395 27.8758 13.823 30.9922 9.97876 30.9922C6.13447 30.9922 3.01807 27.8758 3.01807 24.0315V17.0708H9.97876C6.13447 17.0708 3.01807 13.9544 3.01807 10.1101C3.01807 6.26582 6.13447 3.14941 9.97876 3.14941ZM15.5473 10.1101C15.5473 13.1856 13.0542 15.6787 9.97876 15.6787V4.54155C13.0542 4.54155 15.5473 7.03468 15.5473 10.1101ZM29.4687 24.0315C29.4687 20.9561 26.9756 18.4629 23.9002 18.4629C20.8247 18.4629 18.3316 20.9561 18.3316 24.0315H29.4687ZM4.41021 18.4629V24.0315C4.41021 27.1069 6.90333 29.6001 9.97876 29.6001C13.0542 29.6001 15.5473 27.1069 15.5473 24.0315V18.4629H4.41021ZM18.3316 15.6787V4.54155H23.9002C26.9756 4.54155 29.4687 7.03468 29.4687 10.1101C29.4687 13.1856 26.9756 15.6787 23.9002 15.6787H18.3316Z" fill="#263238"/>
</g>
<defs>
<clipPath id="clip0_211_2046">
<rect width="27.8428" height="27.8428" fill="white" transform="translate(3.01807 3.14941)"/>
</clipPath>
</defs>
</svg>
